<svg xmlns="http://www.w3.org/2000/svg" xmlns:xlink="http://www.w3.org/1999/xlink" aria-hidden="true" role="img" width="64" height="64" viewBox="0 0 256 256" style="color: rgb(74, 85, 101);"><g fill="none"><rect width="256" height="256" fill="#f4f2ed" rx="60"></rect><path fill="url(#iconifyReact276)" fill-rule="evenodd" d="M83 110q9-36 45-36c36 0 40.5 27 58.5 31.5q18 4.502 31.5-13.5q-9 36-45 36c-36 0-40.5-27-58.5-31.5Q96.5 92 83 110m-45 54q9-36 45-36c36 0 40.5 27 58.5 31.5q18 4.502 31.5-13.5q-9 36-45 36c-36 0-40.5-27-58.5-31.5q-18-4.502-31.5 13.5" clip-rule="evenodd"></path><defs><linearGradient id="iconifyReact276" x1="86.5" x2="163.5" y1="74" y2="185.5" gradientUnits="userSpaceOnUse"><stop stop-color="#32b1c1"></stop><stop offset="1" stop-color="#14c6b7"></stop></linearGradient></defs></g></svg>